# xmcd
#
# Track frame offsets: 
#        150
#        35907
#        54053
#        63832
#        82924
#        104689
#        114159
#        140317
#        153854
#        167772
#        184827
#        204578
#        222402
#        231806
#
# Disc length: 3248 seconds
#
# Revision: 0
# Processed by: cddbd v1.5.2PL0 Copyright (c) Steve Scherf et al.
# Submitted via: ExactAudioCopy v0.99pb4
#
DISCID=b80cae0e
DTITLE=Janis Joplin - Ball and Chain - bestof
DYEAR=1900
DGENRE=Blues
TTITLE0=Ball and Chain
TTITLE1=Summertime
TTITLE2=Mary Jane
TTITLE3=Piece Of My Heart
TTITLE4=Catch Me Daddy
TTITLE5=Down On Me
TTITLE6=Tell Mama
TTITLE7=Magic Of Love
TTITLE8=One Night Stand
TTITLE9=Raise Your Hand
TTITLE10=Kozmic Blues
TTITLE11=Try (Just A Little Bit Harder)
TTITLE12=Women Is Losers
TTITLE13=Bye Bye Baby
EXTD=
EXTT0=
EXTT1=
EXTT2=
EXTT3=
EXTT4=
EXTT5=
EXTT6=
EXTT7=
EXTT8=
EXTT9=
EXTT10=
EXTT11=
EXTT12=
EXTT13=
PLAYORDER=
